# xmcd
#
# Track frame offsets:
#	150
#	20636
#	40297
#	57193
#	74749
#	92222
#	111441
#	127852
#	148123
#	165579
#	180242
#	201401
#	217494
#
# Disc length: 3083 seconds
#
# Revision: 2
# Processed by: cddbd v1.5.2PL0 Copyright (c) Steve Scherf et al.
# Submitted via: EasyCDDAExtractor 15.3.0.1
#
DISCID=cc0c090d
DTITLE=Olga Tañon - Una Nueva Mujer (Edicion Especial)
DYEAR=2006
DGENRE=Latin
TTITLE0=Bandolero (Pop)
TTITLE1=Una Nueva Mujer
TTITLE2=Muero De Amor
TTITLE3=Vete Vete
TTITLE4=Desde Que Llegaste A Mi
TTITLE5=Dime Si Tu Me Puedes Querer
TTITLE6=Abre Tu Corazon
TTITLE7=Damelo Todo
TTITLE8=Cuidado Con El Deseo
TTITLE9=Maldito Seductor
TTITLE10=Sin Ti No Puedo Vivir
TTITLE11=Bandolero (Reggaeton)
TTITLE12=Vete Vete (Reggaeton)
EXTD=YEAR: 2006
EXTT0=
EXTT1=
EXTT2=
EXTT3=
EXTT4=
EXTT5=
EXTT6=
EXTT7=
EXTT8=
EXTT9=
EXTT10=
EXTT11=
EXTT12=
PLAYORDER=
